<svg width="38" height="33" viewBox="0 0 38 33" fill="none" xmlns="http://www.w3.org/2000/svg">
<path d="M18.8243 5.82741L15.7432 2.46704C12.0249 -0.946605 6.31372 -0.830612 2.77214 2.89579C-0.924046 6.78544 -0.924046 13.0929 2.77214 16.9834C2.77214 16.9834 4.31484 18.7302 6.23641 20.8799L6.63398 21.3336C6.63398 21.3336 7.99573 22.8716 9.65991 24.7524C11.3241 26.6324 14.0476 29.7101 15.7118 31.59C16.5443 32.53 17.641 33 18.7385 33H18.9101C20.0077 33 21.1044 32.53 21.9361 31.59C23.6002 29.7101 26.3237 26.6324 27.9888 24.7524C29.653 22.8724 31.0147 21.3336 31.0147 21.3336L31.4123 20.8799C33.3338 18.7293 34.8757 16.9834 34.8757 16.9834C38.5719 13.0938 38.5719 6.7863 34.8757 2.89579C31.335 -0.830612 25.6229 -0.946605 21.9046 2.46704L18.8243 5.82741Z" fill="#FFA0B1"/>
<path d="M18.5007 18.8145C18.5007 20.306 17.3766 21.5147 15.9896 21.5147C14.6025 21.5147 13.4785 20.306 13.4785 18.8145" stroke="#221F1F" stroke-miterlimit="10" stroke-linecap="round" stroke-linejoin="round"/>
<path d="M23.5222 18.8145C23.5222 20.306 22.3981 21.5147 21.0111 21.5147C19.624 21.5147 18.5 20.306 18.5 18.8145" stroke="#221F1F" stroke-miterlimit="10" stroke-linecap="round" stroke-linejoin="round"/>
<path d="M11 10L13.5865 11.9077L11 13.8144" stroke="#221F1F" stroke-miterlimit="10" stroke-linecap="round" stroke-linejoin="round"/>
<path d="M25.9995 10L23.4121 11.9077L25.9995 13.8144" stroke="#221F1F" stroke-miterlimit="10" stroke-linecap="round" stroke-linejoin="round"/>
</svg>
