<svg width="39" height="33" viewBox="0 0 39 33" fill="none" xmlns="http://www.w3.org/2000/svg">
<path d="M19.5411 5.82742L16.46 2.46704C12.7417 -0.946605 7.03051 -0.830613 3.48894 2.89579C-0.207249 6.78544 -0.207249 13.0929 3.48894 16.9834C3.48894 16.9834 5.03163 18.7302 6.95321 20.8799L7.35078 21.3336C7.35078 21.3336 8.71253 22.8716 10.3767 24.7524C12.0409 26.6324 14.7644 29.7101 16.4286 31.59C17.2611 32.53 18.3578 33 19.4553 33H19.6269C20.7245 33 21.8212 32.53 22.6529 31.59C24.317 29.7101 27.0405 26.6324 28.7056 24.7524C30.3697 22.8724 31.7315 21.3336 31.7315 21.3336L32.1291 20.8799C34.0506 18.7293 35.5925 16.9834 35.5925 16.9834C39.2887 13.0938 39.2887 6.7863 35.5925 2.89579C32.0518 -0.830613 26.3397 -0.946605 22.6214 2.46704L19.5411 5.82742Z" fill="#FFA0B1"/>
<path fill-rule="evenodd" clip-rule="evenodd" d="M13.5417 9.73828C14.3247 9.73828 14.9594 10.3803 14.9594 11.1722V12.4481C14.9594 13.24 14.3247 13.882 13.5417 13.882C12.7587 13.882 12.124 13.24 12.124 12.4481V11.1722C12.124 10.3803 12.7587 9.73828 13.5417 9.73828Z" fill="#221F1F"/>
<path fill-rule="evenodd" clip-rule="evenodd" d="M25.4968 9.73828C26.2798 9.73828 26.9145 10.3803 26.9145 11.1722V12.4481C26.9145 13.24 26.2798 13.882 25.4968 13.882C24.7138 13.882 24.0791 13.24 24.0791 12.4481V11.1722C24.0791 10.3803 24.7138 9.73828 25.4968 9.73828Z" fill="#221F1F"/>
<path d="M19.5621 25.0158C21.8066 25.0158 23.6261 23.1755 23.6261 20.9054C23.6261 18.6352 21.8066 16.7949 19.5621 16.7949C17.3176 16.7949 15.498 18.6352 15.498 20.9054C15.498 23.1755 17.3176 25.0158 19.5621 25.0158Z" fill="#221F1F"/>
</svg>
