<svg width="38" height="33" viewBox="0 0 38 33" fill="none" xmlns="http://www.w3.org/2000/svg">
<path d="M18.8693 5.82743L15.7881 2.46704C12.0698 -0.946605 6.35864 -0.830613 2.81706 2.89579C-0.879124 6.78544 -0.879124 13.0929 2.81706 16.9834C2.81706 16.9834 4.35976 18.7302 6.28133 20.8799L6.6789 21.3336C6.6789 21.3336 8.04065 22.8716 9.70483 24.7524C11.369 26.6324 14.0925 29.7101 15.7567 31.59C16.5892 32.53 17.6859 33 18.7835 33H18.9551C20.0526 33 21.1493 32.53 21.981 31.59C23.6452 29.7101 26.3687 26.6324 28.0337 24.7524C29.6979 22.8724 31.0596 21.3336 31.0596 21.3336L31.4572 20.8799C33.3788 18.7293 34.9206 16.9834 34.9206 16.9834C38.6168 13.0938 38.6168 6.78629 34.9206 2.89579C31.3799 -0.830613 25.6678 -0.946605 21.9496 2.46704L18.8693 5.82743Z" fill="#C9E7F4"/>
<path d="M14.416 21.2393C15.4908 19.5765 17.3486 18.4785 19.4592 18.4785C21.4944 18.4785 23.2935 19.6284 24.384 21.2393" stroke="#221F1F" stroke-miterlimit="10" stroke-linecap="round" stroke-linejoin="round"/>
<path d="M13.5469 12.2438V11" stroke="#221F1F" stroke-miterlimit="10" stroke-linecap="round" stroke-linejoin="round"/>
<path d="M25.209 12.2438V11" stroke="#221F1F" stroke-miterlimit="10" stroke-linecap="round" stroke-linejoin="round"/>
<path d="M15.9311 19.1057C15.936 19.1149 15.941 19.125 15.946 19.1342C16.8385 20.9773 15.6137 23.205 13.5835 23.3089C13.5313 23.3114 13.4791 23.3131 13.426 23.3131C13.373 23.3131 13.3208 23.3114 13.2686 23.3089C11.2392 23.205 10.0136 20.9773 10.9061 19.1342C10.911 19.1241 10.916 19.1149 10.921 19.1057L13.0863 15.2637C13.2363 14.998 13.615 14.998 13.7649 15.2637L15.9311 19.1057Z" fill="white"/>
</svg>
