<svg width="106" height="100" viewBox="0 0 106 100" fill="none" xmlns="http://www.w3.org/2000/svg">
<path d="M52.9587 16.9882C53.9175 15.278 64.469 0.73448 79.1094 0.0245883C90.9978 -0.551623 101.646 9.09182 105.103 19.2424C113.069 42.6273 61.6433 99.7137 50.3496 99.7137C38.203 99.7137 -7.13327 40.9217 0.961345 18.2006C5.75542 4.74488 17.4318 1.84997 18.2201 1.69324C37.8251 -2.18351 51.9768 15.7067 52.9587 16.9882Z" fill="#FF8967"/>
<path d="M27.3147 54.245C26.9647 54.1983 26.6497 54.0117 26.3697 53.685C26.0897 53.335 25.9614 53.0083 25.9847 52.705L28.5747 32.755C27.688 32.8483 27.0464 32.9417 26.6497 33.035C26.2997 33.0817 26.0547 33.0233 25.9147 32.86C25.7747 32.6733 25.7047 32.3467 25.7047 31.88C25.7047 31.3667 25.9614 31.0633 26.4747 30.97C28.2014 30.6433 30.208 30.48 32.4947 30.48C35.2014 30.5267 37.1964 31.3083 38.4797 32.825C39.7864 34.3183 40.4397 36.5467 40.4397 39.51C40.4397 44.3167 39.4364 48.0033 37.4297 50.57C35.423 53.1367 32.623 54.42 29.0297 54.42C28.5397 54.42 27.968 54.3617 27.3147 54.245ZM28.1197 52.25C28.633 52.2967 28.9714 52.32 29.1347 52.32C32.2847 52.32 34.5947 51.1417 36.0647 48.785C37.5347 46.405 38.2697 43.2667 38.2697 39.37C38.2697 36.9667 37.7797 35.24 36.7997 34.19C35.8197 33.1167 34.408 32.5683 32.5647 32.545C32.2614 32.5217 31.6314 32.5333 30.6747 32.58L28.1197 52.25ZM51.3939 50.395C51.6972 50.605 51.8489 50.8033 51.8489 50.99C51.8489 51.13 51.8022 51.2817 51.7089 51.445C51.1955 52.355 50.5539 53.0667 49.7839 53.58C49.0372 54.0933 48.1039 54.35 46.9839 54.35C45.5372 54.3267 44.4522 53.8017 43.7289 52.775C43.0289 51.725 42.6672 50.36 42.6439 48.68C42.6439 46.79 42.8889 45.0517 43.3789 43.465C43.8689 41.8783 44.6039 40.6067 45.5839 39.65C46.5639 38.6933 47.7655 38.215 49.1889 38.215C50.4489 38.215 51.3589 38.5883 51.9189 39.335C52.4789 40.0583 52.7589 40.8983 52.7589 41.855C52.7589 43.535 52.0472 44.9 50.6239 45.95C49.2005 46.9767 47.2289 47.6067 44.7089 47.84V48.47C44.7089 49.66 44.9072 50.605 45.3039 51.305C45.7005 52.005 46.3189 52.355 47.1589 52.355C47.8122 52.355 48.3255 52.2033 48.6989 51.9C49.0955 51.5967 49.4922 51.1417 49.8889 50.535C50.0755 50.2083 50.2855 50.045 50.5189 50.045C50.6589 50.045 50.7989 50.08 50.9389 50.15L51.3939 50.395ZM49.0139 40.245C47.8939 40.245 47.0072 40.7817 46.3539 41.855C45.7005 42.905 45.2339 44.2 44.9539 45.74C48.7339 45.3667 50.6239 44.1533 50.6239 42.1C50.6239 40.8633 50.0872 40.245 49.0139 40.245ZM65.7116 51.095C65.9216 51.095 66.1433 51.27 66.3766 51.62C66.6099 51.9467 66.7266 52.25 66.7266 52.53C66.7266 52.7167 66.5516 52.95 66.2016 53.23C65.8749 53.4867 65.4666 53.72 64.9766 53.93C64.5099 54.14 64.0549 54.245 63.6116 54.245C63.0283 54.245 62.5966 53.9883 62.3166 53.475C62.0599 52.9383 61.9316 52.3317 61.9316 51.655C61.3716 52.5417 60.7649 53.2067 60.1116 53.65C59.4816 54.0933 58.7349 54.315 57.8716 54.315C56.7516 54.2917 55.8533 53.7433 55.1766 52.67C54.5233 51.5967 54.1966 50.115 54.1966 48.225C54.2199 46.475 54.4766 44.8417 54.9666 43.325C55.4799 41.785 56.2033 40.56 57.1366 39.65C58.0933 38.7167 59.2366 38.25 60.5666 38.25C61.4766 38.25 62.3866 38.6233 63.2966 39.37V39.265C63.3433 38.7983 63.4133 38.5067 63.5066 38.39C63.6233 38.25 63.8333 38.145 64.1366 38.075C64.6966 37.9817 64.9999 37.935 65.0466 37.935C65.2799 37.935 65.4316 37.9933 65.5016 38.11C65.5716 38.2267 65.5833 38.425 65.5366 38.705C64.3933 46.2883 63.8216 50.92 63.8216 52.6C64.1716 52.39 64.5916 52.04 65.0816 51.55C65.3849 51.2467 65.5949 51.095 65.7116 51.095ZM62.4916 45.6C62.8183 43.36 63.0049 41.925 63.0516 41.295C62.6783 40.945 62.3049 40.6883 61.9316 40.525C61.5816 40.3383 61.1733 40.245 60.7066 40.245C59.6333 40.245 58.7699 40.7 58.1166 41.61C57.4633 42.52 56.9966 43.5817 56.7166 44.795C56.4599 46.0083 56.3199 47.1283 56.2966 48.155C56.2966 50.885 56.9849 52.25 58.3616 52.25C59.3416 52.25 60.2049 51.6433 60.9516 50.43C61.7216 49.1933 62.2349 47.5833 62.4916 45.6ZM70.4486 52.95C70.3786 53.4167 70.2853 53.72 70.1686 53.86C70.0753 53.9767 69.877 54.07 69.5736 54.14C69.107 54.2333 68.827 54.28 68.7336 54.28C68.547 54.28 68.4186 54.2217 68.3486 54.105C68.302 54.0117 68.302 53.825 68.3486 53.545C68.792 50.255 69.142 47.4667 69.3986 45.18C69.6553 42.8933 69.7836 40.98 69.7836 39.44C69.7836 38.9733 69.8303 38.6817 69.9236 38.565C70.0403 38.425 70.2736 38.32 70.6236 38.25C71.1836 38.1567 71.487 38.11 71.5336 38.11C71.7436 38.11 71.8836 38.1683 71.9536 38.285C72.0236 38.3783 72.047 38.5767 72.0236 38.88L71.8836 40.84C73.097 39.0667 74.5086 38.18 76.1186 38.18C76.422 38.18 76.632 38.2267 76.7486 38.32C76.8653 38.39 76.9236 38.565 76.9236 38.845C76.9236 39.055 76.912 39.23 76.8886 39.37C76.842 39.79 76.7486 40.07 76.6086 40.21C76.492 40.3267 76.247 40.4083 75.8736 40.455C74.6603 40.595 73.6453 41.155 72.8286 42.135C72.012 43.0917 71.4753 44.62 71.2186 46.72L70.4486 52.95ZM78.0959 50.36C77.5825 50.36 77.1625 50.5933 76.8359 51.06C76.5092 51.5267 76.3459 52.0867 76.3459 52.74C76.3459 53.2067 76.4509 53.58 76.6609 53.86C76.8942 54.1167 77.1975 54.245 77.5709 54.245C78.0842 54.245 78.5042 54.0117 78.8309 53.545C79.1575 53.0783 79.3209 52.5183 79.3209 51.865C79.3209 51.3983 79.2042 51.0367 78.9709 50.78C78.7609 50.5 78.4692 50.36 78.0959 50.36Z" fill="white"/>
</svg>
