<svg width="70" height="63" viewBox="0 0 70 63" fill="none" xmlns="http://www.w3.org/2000/svg">
<path d="M35.0008 11.1251L29.2719 4.70981C22.3584 -1.80716 11.7377 -1.58572 5.15434 5.52832C-1.71811 12.954 -1.71811 24.9956 5.15434 32.4229C5.15434 32.4229 8.02274 35.7577 11.5956 39.8617L12.3348 40.7278C12.3348 40.7278 14.8668 43.664 17.961 47.2546C21.0553 50.8436 26.1192 56.7192 29.2135 60.3083C30.7614 62.1028 32.8005 63 34.8413 63H35.1603C37.2011 63 39.2402 62.1028 40.7865 60.3083C43.8808 56.7192 48.9447 50.8436 52.0406 47.2546C55.1348 43.6656 57.6668 40.7278 57.6668 40.7278L58.406 39.8617C61.9788 35.756 64.8457 32.4229 64.8457 32.4229C71.7181 24.9972 71.7181 12.9557 64.8457 5.52832C58.2623 -1.58572 47.6416 -1.80716 40.7281 4.70981L35.0008 11.1251Z" fill="#FF8967"/>
<rect width="11.9894" height="3.49905" transform="matrix(0.910124 -0.414336 0.393054 0.919515 48.7197 13.1172)" fill="white"/>
<rect width="12.2467" height="3.42554" transform="matrix(-0.393054 -0.919515 -0.910124 0.414336 58.8291 17.1621)" fill="white"/>
<path d="M27.2559 37.8146C29.0228 35.0253 32.077 33.1836 35.5468 33.1836C38.8926 33.1836 41.8502 35.1125 43.643 37.8146" stroke="#221F1F" stroke-width="2" stroke-miterlimit="10" stroke-linecap="round" stroke-linejoin="round"/>
<path d="M25.8281 22.727V20.6406" stroke="#221F1F" stroke-width="2" stroke-miterlimit="10" stroke-linecap="round" stroke-linejoin="round"/>
<path d="M45 22.727V20.6406" stroke="#221F1F" stroke-width="2" stroke-miterlimit="10" stroke-linecap="round" stroke-linejoin="round"/>
<path d="M29.7472 34.2379C29.7553 34.2533 29.7635 34.2702 29.7717 34.2857C31.2389 37.3772 29.2254 41.1141 25.8878 41.2884C25.8019 41.2926 25.7161 41.2955 25.6289 41.2955C25.5417 41.2955 25.4559 41.2926 25.3701 41.2884C22.0338 41.1141 20.019 37.3772 21.4862 34.2857C21.4943 34.2688 21.5025 34.2533 21.5107 34.2379L25.0704 27.7932C25.317 27.3476 25.9395 27.3476 26.1861 27.7932L29.7472 34.2379Z" fill="white"/>
</svg>
