<svg width="40" height="40" viewBox="0 0 40 40" fill="none" xmlns="http://www.w3.org/2000/svg">
<path fill-rule="evenodd" clip-rule="evenodd" d="M27.486 21.6667H21.6527V27.5001C21.6527 27.9421 21.4771 28.366 21.1645 28.6786C20.852 28.9912 20.428 29.1667 19.986 29.1667C19.544 29.1667 19.1201 28.9912 18.8075 28.6786C18.4949 28.366 18.3193 27.9421 18.3193 27.5001V21.6667H12.486C12.044 21.6667 11.6201 21.4912 11.3075 21.1786C10.9949 20.866 10.8193 20.4421 10.8193 20.0001C10.8193 19.5581 10.9949 19.1341 11.3075 18.8216C11.6201 18.509 12.044 18.3334 12.486 18.3334H18.3193V12.5001C18.3193 12.0581 18.4949 11.6341 18.8075 11.3216C19.1201 11.009 19.544 10.8334 19.986 10.8334C20.428 10.8334 20.852 11.009 21.1645 11.3216C21.4771 11.6341 21.6527 12.0581 21.6527 12.5001V18.3334H27.486C27.928 18.3334 28.352 18.509 28.6645 18.8216C28.9771 19.1341 29.1527 19.5581 29.1527 20.0001C29.1527 20.4421 28.9771 20.866 28.6645 21.1786C28.352 21.4912 27.928 21.6667 27.486 21.6667ZM19.9993 1.66675C9.87435 1.66675 1.66602 9.87508 1.66602 20.0001C1.66602 30.1251 9.87435 38.3334 19.9993 38.3334C30.1243 38.3334 38.3327 30.1251 38.3327 20.0001C38.3327 9.87508 30.1243 1.66675 19.9993 1.66675Z" fill="#FF8967"/>
</svg>
