<svg width="93" height="83" viewBox="0 0 93 83" fill="none" xmlns="http://www.w3.org/2000/svg">
<path fill-rule="evenodd" clip-rule="evenodd" d="M49.8567 23.5398L49.3768 36.7559C49.1698 42.4576 53.6242 47.2477 59.3259 47.4547C65.0277 47.6617 69.8177 43.2073 70.0247 37.5055L70.5046 24.2895L49.8567 23.5398Z" fill="#FFDDF1"/>
<path fill-rule="evenodd" clip-rule="evenodd" d="M70.5047 24.2898L70.9845 11.0737C71.1915 5.37196 66.7372 0.581931 61.0354 0.374908C55.3336 0.167885 50.5436 4.62227 50.3366 10.324L49.8567 23.5401L70.5047 24.2898Z" fill="white"/>
<path fill-rule="evenodd" clip-rule="evenodd" d="M17.9206 66.0049L27.9822 74.5881C32.323 78.291 38.8436 77.7739 42.5464 73.4332C46.2493 69.0925 45.7322 62.5718 41.3915 58.869L31.3299 50.2858L17.9206 66.0049Z" fill="#A7EAFF"/>
<path fill-rule="evenodd" clip-rule="evenodd" d="M31.3314 50.2856L21.2697 41.7025C16.929 37.9996 10.4084 38.5166 6.70551 42.8574C3.00264 47.1981 3.51971 53.7187 7.86043 57.4216L17.9221 66.0047L31.3314 50.2856Z" fill="white"/>
<path fill-rule="evenodd" clip-rule="evenodd" d="M67.2396 60.9857C64.0739 66.0916 65.3366 72.8176 70.2454 76.3221C75.1543 79.8266 81.9258 78.8362 85.7266 74.1837L67.2396 60.9857ZM86.6977 72.8043C89.7605 67.7152 88.4775 61.0747 83.611 57.6004C78.7445 54.1262 72.0473 55.0696 68.2288 59.6193L86.6977 72.8043Z" fill="#CFECF2"/>
</svg>
