<svg width="70" height="67" viewBox="0 0 70 67" fill="none" xmlns="http://www.w3.org/2000/svg">
<path d="M35.0008 16.7719L29.2719 10.5603C22.3584 4.25021 11.7377 4.46462 5.15434 11.3528C-1.71811 18.5428 -1.71811 30.2021 5.15434 37.3936C5.15434 37.3936 8.02274 40.6225 11.5956 44.5963L12.3348 45.4349C12.3348 45.4349 14.8667 48.2778 17.961 51.7545C21.0553 55.2296 26.1192 60.9186 29.2134 64.3937C30.7614 66.1312 32.8005 67 34.8413 67H35.1603C37.2011 67 39.2402 66.1312 40.7865 64.3937C43.8808 60.9186 48.9447 55.2296 52.0406 51.7545C55.1364 48.2794 57.6668 45.4349 57.6668 45.4349L58.406 44.5963C61.9788 40.6209 64.8457 37.3936 64.8457 37.3936C71.7181 30.2036 71.7181 18.5444 64.8457 11.3528C58.2623 4.46462 47.6416 4.25021 40.7281 10.5603L35.0008 16.7719Z" fill="#FF8967"/>
<g clip-path="url(#clip0_891_10374)">
<path d="M67.4926 4.56826C67.4197 5.11513 67.3516 5.57749 67.2836 6.03986C66.5617 11.3818 66.1486 12.7993 65.0574 18.0775C55.2974 14.1247 46.1349 12.7496 38.1945 13.1828C39.1642 8.57571 39.6429 6.73812 40.666 2.64283C40.7778 2.14059 40.9333 1.59847 41.0476 1.05398C49.3233 -0.165315 58.2525 0.942033 67.4926 4.56826Z" fill="#D9F8FC"/>
<path d="M67.4923 4.5687C67.4194 5.11557 67.3513 5.57794 67.2832 6.04031C58.9543 2.42413 49.6145 1.25076 40.6657 2.64327C40.7775 2.14103 40.933 1.59892 41.0472 1.05443C49.3229 -0.164868 58.2522 0.94248 67.4923 4.5687Z" fill="#97CAE5"/>
<path d="M51.0805 3.85321L49.7393 11.7793L52.3079 12.2273L53.6491 4.30121L51.0805 3.85321Z" fill="#97CAE5"/>
<path d="M47.7134 6.08562L47.2969 8.54688L55.6551 10.0046L56.0716 7.54339L47.7134 6.08562Z" fill="#97CAE5"/>
</g>
<path d="M44.2156 39.7461C42.8957 43.1838 39.5626 45.6244 35.661 45.6244C31.869 45.6244 28.6166 43.03 27.2236 39.7461" stroke="#221F1F" stroke-width="2" stroke-miterlimit="10" stroke-linecap="round" stroke-linejoin="round"/>
<path d="M24 30.248C24.6959 29.4816 25.7006 29 26.8175 29C27.9004 29 28.8774 29.4526 29.5707 30.1787" stroke="#221F1F" stroke-width="2" stroke-miterlimit="10" stroke-linecap="round" stroke-linejoin="round"/>
<path d="M41.4287 30.248C42.1246 29.4816 43.1293 29 44.2462 29C45.3291 29 46.3061 29.4526 46.9994 30.1787" stroke="#221F1F" stroke-width="2" stroke-miterlimit="10" stroke-linecap="round" stroke-linejoin="round"/>
<defs>
<clipPath id="clip0_891_10374">
<rect width="28.7547" height="16.5893" fill="white" transform="translate(38.9531) rotate(3.29386)"/>
</clipPath>
</defs>
</svg>
