<svg width="65" height="61" viewBox="0 0 65 61" fill="none" xmlns="http://www.w3.org/2000/svg">
<path d="M32.3298 10.3708C32.9152 9.32678 39.3566 0.44838 48.2942 0.0150105C55.5517 -0.336751 62.0523 5.55031 64.1628 11.7469C69.0256 26.0228 37.6316 60.8725 30.737 60.8725C23.3219 60.8725 -4.35467 24.9816 0.586875 11.111C3.51353 2.89662 10.6416 1.12935 11.1228 1.03368C23.0912 -1.33297 31.7304 9.58849 32.3298 10.3708Z" fill="#EB4060"/>
<path d="M14.8799 35.5645C14.6399 35.5325 14.4239 35.4045 14.2319 35.1805C14.0399 34.9405 13.9519 34.7165 13.9679 34.5085L15.7439 20.8285C15.1359 20.8925 14.6959 20.9565 14.4239 21.0205C14.1839 21.0525 14.0159 21.0125 13.9199 20.9005C13.8239 20.7725 13.7759 20.5485 13.7759 20.2285C13.7759 19.8765 13.9519 19.6685 14.3039 19.6045C15.4879 19.3805 16.8639 19.2685 18.4319 19.2685C20.2879 19.3005 21.6559 19.8365 22.5359 20.8765C23.4319 21.9005 23.8799 23.4285 23.8799 25.4605C23.8799 28.7565 23.1919 31.2845 21.8159 33.0445C20.4399 34.8045 18.5199 35.6845 16.0559 35.6845C15.7199 35.6845 15.3279 35.6445 14.8799 35.5645ZM15.4319 34.1965C15.7839 34.2285 16.0159 34.2445 16.1279 34.2445C18.2879 34.2445 19.8719 33.4365 20.8799 31.8205C21.8879 30.1885 22.3919 28.0365 22.3919 25.3645C22.3919 23.7165 22.0559 22.5325 21.3839 21.8125C20.7119 21.0765 19.7439 20.7005 18.4799 20.6845C18.2719 20.6685 17.8399 20.6765 17.1839 20.7085L15.4319 34.1965ZM31.3913 32.9245C31.5993 33.0685 31.7033 33.2045 31.7033 33.3325C31.7033 33.4285 31.6713 33.5325 31.6073 33.6445C31.2553 34.2685 30.8153 34.7565 30.2873 35.1085C29.7753 35.4605 29.1353 35.6365 28.3673 35.6365C27.3753 35.6205 26.6313 35.2605 26.1353 34.5565C25.6553 33.8365 25.4073 32.9005 25.3913 31.7485C25.3913 30.4525 25.5593 29.2605 25.8953 28.1725C26.2313 27.0845 26.7353 26.2125 27.4073 25.5565C28.0793 24.9005 28.9033 24.5725 29.8793 24.5725C30.7433 24.5725 31.3673 24.8285 31.7513 25.3405C32.1353 25.8365 32.3273 26.4125 32.3273 27.0685C32.3273 28.2205 31.8393 29.1565 30.8633 29.8765C29.8873 30.5805 28.5353 31.0125 26.8073 31.1725V31.6045C26.8073 32.4205 26.9433 33.0685 27.2153 33.5485C27.4873 34.0285 27.9113 34.2685 28.4873 34.2685C28.9353 34.2685 29.2873 34.1645 29.5433 33.9565C29.8153 33.7485 30.0873 33.4365 30.3593 33.0205C30.4873 32.7965 30.6313 32.6845 30.7913 32.6845C30.8873 32.6845 30.9833 32.7085 31.0793 32.7565L31.3913 32.9245ZM29.7593 25.9645C28.9913 25.9645 28.3833 26.3325 27.9353 27.0685C27.4873 27.7885 27.1673 28.6765 26.9753 29.7325C29.5673 29.4765 30.8633 28.6445 30.8633 27.2365C30.8633 26.3885 30.4953 25.9645 29.7593 25.9645ZM41.2092 33.4045C41.3532 33.4045 41.5052 33.5245 41.6652 33.7645C41.8252 33.9885 41.9052 34.1965 41.9052 34.3885C41.9052 34.5165 41.7852 34.6765 41.5452 34.8685C41.3212 35.0445 41.0412 35.2045 40.7052 35.3485C40.3852 35.4925 40.0732 35.5645 39.7692 35.5645C39.3692 35.5645 39.0732 35.3885 38.8812 35.0365C38.7052 34.6685 38.6172 34.2525 38.6172 33.7885C38.2332 34.3965 37.8172 34.8525 37.3692 35.1565C36.9372 35.4605 36.4252 35.6125 35.8332 35.6125C35.0652 35.5965 34.4492 35.2205 33.9852 34.4845C33.5372 33.7485 33.3132 32.7325 33.3132 31.4365C33.3292 30.2365 33.5052 29.1165 33.8412 28.0765C34.1932 27.0205 34.6892 26.1805 35.3292 25.5565C35.9852 24.9165 36.7692 24.5965 37.6812 24.5965C38.3052 24.5965 38.9292 24.8525 39.5532 25.3645V25.2925C39.5852 24.9725 39.6332 24.7725 39.6972 24.6925C39.7772 24.5965 39.9212 24.5245 40.1292 24.4765C40.5132 24.4125 40.7212 24.3805 40.7532 24.3805C40.9132 24.3805 41.0172 24.4205 41.0652 24.5005C41.1132 24.5805 41.1212 24.7165 41.0892 24.9085C40.3052 30.1085 39.9132 33.2845 39.9132 34.4365C40.1532 34.2925 40.4412 34.0525 40.7772 33.7165C40.9852 33.5085 41.1292 33.4045 41.2092 33.4045ZM39.0012 29.6365C39.2252 28.1005 39.3532 27.1165 39.3852 26.6845C39.1292 26.4445 38.8732 26.2685 38.6172 26.1565C38.3772 26.0285 38.0972 25.9645 37.7772 25.9645C37.0412 25.9645 36.4492 26.2765 36.0012 26.9005C35.5532 27.5245 35.2332 28.2525 35.0412 29.0845C34.8652 29.9165 34.7692 30.6845 34.7532 31.3885C34.7532 33.2605 35.2252 34.1965 36.1692 34.1965C36.8412 34.1965 37.4332 33.7805 37.9452 32.9485C38.4732 32.1005 38.8252 30.9965 39.0012 29.6365ZM44.4574 34.6765C44.4094 34.9965 44.3454 35.2045 44.2654 35.3005C44.2014 35.3805 44.0654 35.4445 43.8574 35.4925C43.5374 35.5565 43.3454 35.5885 43.2814 35.5885C43.1534 35.5885 43.0654 35.5485 43.0174 35.4685C42.9854 35.4045 42.9854 35.2765 43.0174 35.0845C43.3214 32.8285 43.5614 30.9165 43.7374 29.3485C43.9134 27.7805 44.0014 26.4685 44.0014 25.4125C44.0014 25.0925 44.0334 24.8925 44.0974 24.8125C44.1774 24.7165 44.3374 24.6445 44.5774 24.5965C44.9614 24.5325 45.1694 24.5005 45.2014 24.5005C45.3454 24.5005 45.4414 24.5405 45.4894 24.6205C45.5374 24.6845 45.5534 24.8205 45.5374 25.0285L45.4414 26.3725C46.2734 25.1565 47.2414 24.5485 48.3454 24.5485C48.5534 24.5485 48.6974 24.5805 48.7774 24.6445C48.8574 24.6925 48.8974 24.8125 48.8974 25.0045C48.8974 25.1485 48.8894 25.2685 48.8734 25.3645C48.8414 25.6525 48.7774 25.8445 48.6814 25.9405C48.6014 26.0205 48.4334 26.0765 48.1774 26.1085C47.3454 26.2045 46.6494 26.5885 46.0894 27.2605C45.5294 27.9165 45.1614 28.9645 44.9854 30.4045L44.4574 34.6765ZM49.7013 32.9005C49.3493 32.9005 49.0613 33.0605 48.8373 33.3805C48.6133 33.7005 48.5013 34.0845 48.5013 34.5325C48.5013 34.8525 48.5733 35.1085 48.7173 35.3005C48.8773 35.4765 49.0853 35.5645 49.3413 35.5645C49.6933 35.5645 49.9813 35.4045 50.2053 35.0845C50.4293 34.7645 50.5413 34.3805 50.5413 33.9325C50.5413 33.6125 50.4613 33.3645 50.3013 33.1885C50.1573 32.9965 49.9573 32.9005 49.7013 32.9005Z" fill="white"/>
<path d="M57.035 20.1952L41.9084 12.3107C40.5693 11.6126 40.045 9.94637 40.7431 8.60729C41.4412 7.26822 43.1074 6.74389 44.4465 7.44202L59.5731 15.3266C60.9122 16.0247 61.4365 17.6909 60.7384 19.03C60.0406 20.3684 58.3744 20.8927 57.035 20.1952Z" fill="#E8C49F"/>
<path d="M51.3171 16.1994L48.021 14.4813C47.5663 14.2444 47.3884 13.679 47.6253 13.2243L48.4691 11.6047C48.706 11.15 49.2714 10.9721 49.7261 11.209L53.0223 12.9271C53.477 13.164 53.6548 13.7294 53.4179 14.184L52.5741 15.8037C52.3372 16.2584 51.7718 16.4363 51.3171 16.1994Z" fill="#E7E8ED"/>
<path d="M44.7104 8.90948C44.7055 8.89835 44.7017 8.88687 44.6952 8.87574C44.6302 8.76125 44.4793 8.68437 44.3493 8.72496C44.3274 8.73219 44.3062 8.74324 44.2867 8.75604C44.2067 8.78879 44.1408 8.86085 44.1128 8.94066C44.0882 9.0118 44.0946 9.08545 44.1229 9.15015C44.1545 9.26696 44.2543 9.36071 44.3737 9.38608C44.5132 9.41638 44.6538 9.34456 44.7188 9.21901C44.7705 9.11809 44.7639 9.0017 44.7104 8.90948Z" fill="#D19D74"/>
<path d="M43.602 11.0378C43.5971 11.0267 43.5933 11.0152 43.5868 11.0041C43.5218 10.8896 43.3709 10.8127 43.2409 10.8533C43.219 10.8605 43.1978 10.8716 43.1783 10.8844C43.0983 10.9171 43.0324 10.9892 43.0044 11.069C42.9798 11.1401 42.9862 11.2138 43.0145 11.2785C43.0461 11.3953 43.1459 11.489 43.2653 11.5144C43.4048 11.5447 43.5454 11.4729 43.6104 11.3473C43.6621 11.2464 43.6562 11.1304 43.602 11.0378Z" fill="#D19D74"/>
<path d="M44.1566 9.97379C44.1518 9.96266 44.148 9.95118 44.1415 9.94005C44.0765 9.82556 43.9256 9.74869 43.7956 9.78928C43.7737 9.79651 43.7525 9.80755 43.733 9.82035C43.653 9.8531 43.5871 9.92517 43.5591 10.005C43.5345 10.0761 43.5409 10.1498 43.5692 10.2145C43.6008 10.3313 43.7006 10.425 43.82 10.4504C43.9595 10.4807 44.1001 10.4089 44.1651 10.2833C44.2161 10.1821 44.2102 10.066 44.1566 9.97379Z" fill="#D19D74"/>
<path d="M46.0688 9.61664C46.0639 9.60551 46.0601 9.59404 46.0536 9.5829C45.9886 9.46842 45.8377 9.39154 45.7077 9.43213C45.6858 9.43936 45.6646 9.45041 45.6451 9.4632C45.5651 9.49596 45.4992 9.56802 45.4712 9.64783C45.4466 9.71897 45.453 9.79262 45.4813 9.85732C45.5129 9.97413 45.6127 10.0679 45.7321 10.0933C45.8716 10.1236 46.0122 10.0517 46.0772 9.92618C46.1289 9.82525 46.1223 9.70886 46.0688 9.61664Z" fill="#D19D74"/>
<path d="M45.5141 10.681C45.5092 10.6699 45.5055 10.6584 45.4989 10.6473C45.4339 10.5328 45.2831 10.4559 45.153 10.4965C45.1311 10.5037 45.1099 10.5148 45.0904 10.5276C45.0104 10.5603 44.9445 10.6324 44.9165 10.7122C44.892 10.7833 44.8983 10.857 44.9266 10.9217C44.9582 11.0385 45.058 11.1322 45.1774 11.1576C45.317 11.1879 45.4575 11.1161 45.5225 10.9905C45.5735 10.8893 45.5676 10.7732 45.5141 10.681Z" fill="#D19D74"/>
<path d="M44.9574 11.7458C44.9526 11.7347 44.9488 11.7232 44.9422 11.7121C44.8773 11.5976 44.7264 11.5207 44.5964 11.5613C44.5745 11.5685 44.5532 11.5796 44.5338 11.5924C44.4538 11.6251 44.3879 11.6972 44.3598 11.777C44.3353 11.8481 44.3417 11.9218 44.37 11.9865C44.4016 12.1033 44.5013 12.197 44.6208 12.2224C44.7603 12.2527 44.9009 12.1809 44.9659 12.0553C45.0179 11.9537 45.012 11.8377 44.9574 11.7458Z" fill="#D19D74"/>
<path d="M42.9633 9.37514C42.9585 9.36401 42.9547 9.35253 42.9481 9.34139C42.8832 9.22691 42.7323 9.15003 42.6022 9.19062C42.5803 9.19785 42.5591 9.2089 42.5396 9.22169C42.4596 9.25445 42.3937 9.32651 42.3657 9.40632C42.3412 9.47746 42.3476 9.55111 42.3758 9.61581C42.4074 9.73262 42.5072 9.82637 42.6266 9.85174C42.7662 9.88204 42.9067 9.81022 42.9717 9.68467C43.0234 9.58375 43.0168 9.46735 42.9633 9.37514Z" fill="#D19D74"/>
<path d="M47.3051 10.2616C47.3003 10.2505 47.2965 10.239 47.2899 10.2279C47.2249 10.1134 47.0741 10.0365 46.944 10.0771C46.9221 10.0844 46.9009 10.0954 46.8814 10.1082C46.8014 10.141 46.7355 10.213 46.7075 10.2928C46.683 10.364 46.6894 10.4376 46.7176 10.5023C46.7492 10.6191 46.849 10.7129 46.9684 10.7383C47.108 10.7686 47.2485 10.6967 47.3135 10.5712C47.3652 10.4703 47.3586 10.3539 47.3051 10.2616Z" fill="#D19D74"/>
<path d="M46.7504 11.3261C46.7456 11.315 46.7418 11.3035 46.7352 11.2924C46.6703 11.1779 46.5194 11.101 46.3893 11.1416C46.3674 11.1488 46.3462 11.1599 46.3267 11.1727C46.2467 11.2054 46.1809 11.2775 46.1528 11.3573C46.1283 11.4285 46.1347 11.5021 46.163 11.5668C46.1946 11.6836 46.2943 11.7774 46.4137 11.8027C46.5533 11.833 46.6938 11.7612 46.7588 11.6357C46.8099 11.5344 46.804 11.4183 46.7504 11.3261Z" fill="#D19D74"/>
<path d="M46.1957 12.3901C46.1909 12.379 46.1871 12.3675 46.1805 12.3563C46.1156 12.2419 45.9647 12.165 45.8347 12.2056C45.8127 12.2128 45.7915 12.2239 45.772 12.2366C45.692 12.2694 45.6262 12.3415 45.5981 12.4213C45.5736 12.4924 45.58 12.5661 45.6083 12.6308C45.6399 12.7476 45.7396 12.8413 45.859 12.8667C45.9986 12.897 46.1392 12.8252 46.2041 12.6996C46.2559 12.5987 46.25 12.4827 46.1957 12.3901Z" fill="#D19D74"/>
<path d="M56.5238 18.353C56.5286 18.3641 56.5331 18.3759 56.539 18.3867C56.6043 18.5005 56.7562 18.577 56.8859 18.5354C56.9078 18.5282 56.9284 18.5168 56.9489 18.5036C57.0282 18.4705 57.0941 18.3985 57.1214 18.3183C57.1459 18.2472 57.1389 18.1732 57.1106 18.1085C57.079 17.9917 56.9778 17.899 56.8584 17.8736C56.7185 17.844 56.5783 17.9168 56.5147 18.0431C56.4623 18.1454 56.4699 18.2614 56.5238 18.353Z" fill="#D19D74"/>
<path d="M57.6187 16.2172C57.6235 16.2283 57.628 16.2401 57.6339 16.2509C57.6992 16.3647 57.8511 16.4412 57.9808 16.3996C58.0027 16.3924 58.0232 16.381 58.0438 16.3678C58.1231 16.3347 58.1889 16.2627 58.2163 16.1825C58.2408 16.1114 58.2337 16.0374 58.2055 15.9727C58.1739 15.8559 58.0727 15.7632 57.9529 15.7385C57.813 15.7089 57.6728 15.7817 57.6092 15.908C57.5572 16.0096 57.5641 16.1253 57.6187 16.2172Z" fill="#D19D74"/>
<path d="M57.0717 17.2851C57.0765 17.2962 57.081 17.3081 57.0868 17.3188C57.1522 17.4326 57.3041 17.5092 57.4338 17.4675C57.4557 17.4603 57.4762 17.4489 57.4967 17.4358C57.576 17.4027 57.6419 17.3306 57.6693 17.2505C57.6938 17.1793 57.6867 17.1053 57.6584 17.0406C57.6268 16.9238 57.5257 16.8311 57.4063 16.8057C57.2664 16.7761 57.1261 16.849 57.0625 16.9752C57.0101 17.0775 57.0171 17.1932 57.0717 17.2851Z" fill="#D19D74"/>
<path d="M55.1625 17.6554C55.1673 17.6665 55.1718 17.6783 55.1777 17.6891C55.243 17.8029 55.3949 17.8795 55.5246 17.8378C55.5465 17.8306 55.567 17.8192 55.5876 17.8061C55.6669 17.7729 55.7327 17.7009 55.7601 17.6207C55.7846 17.5496 55.7775 17.4756 55.7492 17.4109C55.7176 17.2941 55.6165 17.2014 55.4971 17.176C55.3572 17.1464 55.217 17.2192 55.1534 17.3455C55.1013 17.4471 55.1082 17.5628 55.1625 17.6554Z" fill="#D19D74"/>
<path d="M55.7094 16.5869C55.7142 16.5981 55.7187 16.6099 55.7245 16.6207C55.7899 16.7344 55.9418 16.811 56.0715 16.7694C56.0934 16.7621 56.1139 16.7507 56.1344 16.7376C56.2137 16.7045 56.2796 16.6324 56.3069 16.5523C56.3315 16.4811 56.3244 16.4071 56.2961 16.3424C56.2645 16.2256 56.1634 16.1329 56.044 16.1075C55.904 16.0779 55.7638 16.1508 55.7002 16.277C55.6478 16.3794 55.6548 16.4951 55.7094 16.5869Z" fill="#D19D74"/>
<path d="M56.2572 15.519C56.262 15.5301 56.2665 15.5419 56.2724 15.5527C56.3377 15.6665 56.4896 15.743 56.6193 15.7014C56.6412 15.6942 56.6618 15.6828 56.6823 15.6696C56.7616 15.6365 56.8275 15.5645 56.8548 15.4843C56.8793 15.4132 56.8723 15.3392 56.844 15.2745C56.8124 15.1576 56.7112 15.0649 56.5918 15.0396C56.4519 15.01 56.3117 15.0828 56.2481 15.2091C56.1957 15.3114 56.2026 15.4271 56.2572 15.519Z" fill="#D19D74"/>
<path d="M58.2689 17.8761C58.2738 17.8872 58.2782 17.899 58.2841 17.9098C58.3494 18.0236 58.5013 18.1001 58.631 18.0585C58.6529 18.0513 58.6735 18.0399 58.694 18.0267C58.7733 17.9936 58.8392 17.9216 58.8665 17.8414C58.891 17.7703 58.884 17.6963 58.8557 17.6316C58.8241 17.5147 58.7229 17.422 58.6035 17.3967C58.4636 17.3671 58.3234 17.4399 58.2598 17.5662C58.2074 17.6685 58.2143 17.7842 58.2689 17.8761Z" fill="#D19D74"/>
<path d="M53.9205 17.0187C53.9253 17.0299 53.9298 17.0417 53.9356 17.0525C54.0009 17.1663 54.1529 17.2428 54.2826 17.2012C54.3045 17.1939 54.325 17.1825 54.3455 17.1694C54.4248 17.1363 54.4907 17.0642 54.518 16.9841C54.5426 16.913 54.5355 16.8389 54.5072 16.7742C54.4756 16.6574 54.3745 16.5647 54.2547 16.54C54.1148 16.5104 53.9746 16.5833 53.911 16.7095C53.8593 16.8105 53.8658 16.9269 53.9205 17.0187Z" fill="#D19D74"/>
<path d="M54.4682 15.9509C54.473 15.962 54.4775 15.9739 54.4833 15.9847C54.5486 16.0984 54.7006 16.175 54.8303 16.1333C54.8522 16.1261 54.8727 16.1147 54.8932 16.1016C54.9725 16.0685 55.0384 15.9964 55.0657 15.9163C55.0903 15.8451 55.0832 15.7711 55.0549 15.7064C55.0233 15.5896 54.9222 15.4969 54.8027 15.4715C54.6628 15.4419 54.5226 15.5148 54.459 15.641C54.407 15.7426 54.4135 15.859 54.4682 15.9509Z" fill="#D19D74"/>
<path d="M55.0162 14.883C55.021 14.8941 55.0255 14.906 55.0313 14.9167C55.0966 15.0305 55.2486 15.1071 55.3783 15.0654C55.4002 15.0582 55.4207 15.0468 55.4412 15.0337C55.5205 15.0006 55.5864 14.9285 55.6137 14.8483C55.6383 14.7772 55.6312 14.7032 55.6029 14.6385C55.5713 14.5217 55.4702 14.429 55.3504 14.4043C55.2105 14.3747 55.0703 14.4476 55.0067 14.5738C54.955 14.6747 54.9616 14.7911 55.0162 14.883Z" fill="#D19D74"/>
</svg>
