<svg width="39" height="33" viewBox="0 0 39 33" fill="none" xmlns="http://www.w3.org/2000/svg">
<path d="M19.2042 5.82742L16.1231 2.46704C12.4048 -0.946605 6.69275 -0.830613 3.15202 2.89579C-0.544164 6.78544 -0.544164 13.0929 3.15202 16.9834C3.15202 16.9834 4.69472 18.7302 6.6163 20.8799L7.01387 21.3336C7.01387 21.3336 8.37562 22.8716 10.0398 24.7524C11.704 26.6324 14.4275 29.7101 16.0917 31.59C16.9242 32.53 18.0209 33 19.1184 33H19.29C20.3876 33 21.4843 32.53 22.316 31.59C23.9801 29.7101 26.7036 26.6324 28.3687 24.7524C30.0328 22.8724 31.3946 21.3336 31.3946 21.3336L31.7922 20.8799C33.7137 18.7293 35.2556 16.9834 35.2556 16.9834C38.9518 13.0938 38.9518 6.7863 35.2556 2.89579C31.7149 -0.830613 26.0028 -0.946605 22.2845 2.46704L19.2042 5.82742Z" fill="#C9C9F4"/>
<path d="M13.0791 11L15.309 12.5461L13.0791 14.0923" stroke="#221F1F" stroke-miterlimit="10" stroke-linecap="round" stroke-linejoin="round"/>
<path d="M26.011 11L23.7803 12.5461L26.011 14.0923" stroke="#221F1F" stroke-miterlimit="10" stroke-linecap="round" stroke-linejoin="round"/>
<path d="M14.0811 22.7151C14.0811 19.5884 16.5873 17.0527 19.6795 17.0527C22.7716 17.0527 25.2779 19.5876 25.2779 22.7151H14.0811Z" fill="#221F1F"/>
</svg>
