<svg width="38" height="33" viewBox="0 0 38 33" fill="none" xmlns="http://www.w3.org/2000/svg">
<path d="M18.8243 5.82742L15.7432 2.46704C12.0249 -0.946605 6.31287 -0.830613 2.77214 2.89579C-0.924046 6.78544 -0.924046 13.0929 2.77214 16.9834C2.77214 16.9834 4.31484 18.7302 6.23641 20.8799L6.63399 21.3336C6.63399 21.3336 7.99574 22.8716 9.65991 24.7524C11.3241 26.6324 14.0476 29.7101 15.7118 31.59C16.5443 32.53 17.641 33 18.7385 33H18.9101C20.0077 33 21.1044 32.53 21.9361 31.59C23.6003 29.7101 26.3238 26.6324 27.9888 24.7524C29.653 22.8724 31.0147 21.3336 31.0147 21.3336L31.4123 20.8799C33.3338 18.7293 34.8757 16.9834 34.8757 16.9834C38.5719 13.0938 38.5719 6.7863 34.8757 2.89579C31.335 -0.830613 25.6229 -0.946605 21.9046 2.46704L18.8243 5.82742Z" fill="#C9C9F4"/>
<path fill-rule="evenodd" clip-rule="evenodd" d="M13.4177 10C14.2006 10 14.8354 10.642 14.8354 11.4339V12.1582C14.8354 12.9501 14.2006 13.5921 13.4177 13.5921C12.6347 13.5921 12 12.9501 12 12.1582V11.4339C12 10.642 12.6347 10 13.4177 10Z" fill="#221F1F"/>
<path fill-rule="evenodd" clip-rule="evenodd" d="M24.0134 10C24.7964 10 25.4311 10.642 25.4311 11.4339V12.1582C25.4311 12.9501 24.7964 13.5921 24.0134 13.5921C23.2304 13.5921 22.5957 12.9501 22.5957 12.1582V11.4339C22.5957 10.642 23.2304 10 24.0134 10Z" fill="#221F1F"/>
<path d="M14 20.7608C15.0748 19.098 16.9326 18 19.0432 18C21.0784 18 22.8774 19.1499 23.968 20.7608" stroke="#221F1F" stroke-miterlimit="10" stroke-linecap="round" stroke-linejoin="round"/>
<path d="M13 12.2438V11" stroke="#221F1F" stroke-miterlimit="10" stroke-linecap="round" stroke-linejoin="round"/>
</svg>
