<svg width="39" height="33" viewBox="0 0 39 33" fill="none" xmlns="http://www.w3.org/2000/svg">
<path d="M19.5363 5.82743L16.4551 2.46704C12.7368 -0.946605 7.02563 -0.830613 3.48405 2.89579C-0.212132 6.78544 -0.212132 13.0929 3.48405 16.9834C3.48405 16.9834 5.02675 18.7302 6.94832 20.8799L7.34589 21.3336C7.34589 21.3336 8.70765 22.8716 10.3718 24.7524C12.036 26.6324 14.7595 29.7101 16.4237 31.59C17.2562 32.53 18.3529 33 19.4505 33H19.6221C20.7196 33 21.8163 32.53 22.648 31.59C24.3122 29.7101 27.0357 26.6324 28.7007 24.7524C30.3649 22.8724 31.7266 21.3336 31.7266 21.3336L32.1242 20.8799C34.0458 18.7293 35.5876 16.9834 35.5876 16.9834C39.2838 13.0938 39.2838 6.78629 35.5876 2.89579C32.0469 -0.830613 26.3348 -0.946605 22.6166 2.46704L19.5363 5.82743Z" fill="#CBEDBF"/>
<path d="M24.6315 18.0742C23.8939 20.0173 22.0312 21.3968 19.8509 21.3968C17.7318 21.3968 15.9142 19.9304 15.1357 18.0742" stroke="#221F1F" stroke-miterlimit="10" stroke-linecap="round" stroke-linejoin="round"/>
<path d="M13.334 12.7054C13.7229 12.2722 14.2843 12 14.9085 12C15.5137 12 16.0596 12.2558 16.4471 12.6662" stroke="#221F1F" stroke-miterlimit="10" stroke-linecap="round" stroke-linejoin="round"/>
<path d="M23.0742 12.7054C23.4631 12.2722 24.0246 12 24.6487 12C25.2539 12 25.7999 12.2558 26.1873 12.6662" stroke="#221F1F" stroke-miterlimit="10" stroke-linecap="round" stroke-linejoin="round"/>
</svg>
