<svg width="39" height="33" viewBox="0 0 39 33" fill="none" xmlns="http://www.w3.org/2000/svg">
<path d="M19.5372 5.82743L16.4561 2.46704C12.7378 -0.946605 7.02661 -0.830613 3.48503 2.89579C-0.211156 6.78544 -0.211156 13.0929 3.48503 16.9834C3.48503 16.9834 5.02773 18.7302 6.9493 20.8799L7.34687 21.3336C7.34687 21.3336 8.70862 22.8716 10.3728 24.7524C12.037 26.6324 14.7605 29.7101 16.4247 31.59C17.2572 32.53 18.3539 33 19.4514 33H19.623C20.7206 33 21.8173 32.53 22.649 31.59C24.3131 29.7101 27.0366 26.6324 28.7017 24.7524C30.3658 22.8724 31.7276 21.3336 31.7276 21.3336L32.1252 20.8799C34.0467 18.7293 35.5886 16.9834 35.5886 16.9834C39.2848 13.0938 39.2848 6.78629 35.5886 2.89579C32.0479 -0.830613 26.3358 -0.946605 22.6175 2.46704L19.5372 5.82743Z" fill="#CBEDBF"/>
<path d="M24.6325 18.0742C23.8949 20.0173 22.0322 21.3968 19.8518 21.3968C17.7327 21.3968 15.9152 19.9304 15.1367 18.0742" stroke="#221F1F" stroke-miterlimit="10" stroke-linecap="round" stroke-linejoin="round"/>
<path d="M16.4492 11.9999C16.0603 12.4331 15.4989 12.7053 14.8747 12.7053C14.2695 12.7053 13.7236 12.4495 13.3361 12.0391" stroke="#221F1F" stroke-miterlimit="10" stroke-linecap="round" stroke-linejoin="round"/>
<path d="M26.1895 11.9999C25.8006 12.4331 25.2391 12.7053 24.6149 12.7053C24.0098 12.7053 23.4638 12.4495 23.0763 12.0391" stroke="#221F1F" stroke-miterlimit="10" stroke-linecap="round" stroke-linejoin="round"/>
</svg>
