<svg width="80" height="77" viewBox="0 0 80 77" fill="none" xmlns="http://www.w3.org/2000/svg">
<path d="M39.9923 15.0545C40.7164 13.7791 48.6846 2.93371 59.7404 2.40432C68.7181 1.97463 76.7593 9.16597 79.3701 16.7355C85.3854 34.1742 46.5507 76.7449 38.0221 76.7449C28.8495 76.7449 -5.38677 32.9023 0.725971 15.9586C4.34627 5.92435 13.1638 3.76555 13.7591 3.64867C28.564 0.757691 39.2509 14.0988 39.9923 15.0545Z" fill="#E4E4E4"/>
<mask id="mask0_1029_4144" style="mask-type:alpha" maskUnits="userSpaceOnUse" x="0" y="0" width="80" height="75">
<path d="M39.9923 12.6685C40.7164 11.3931 48.6846 0.547719 59.7404 0.0183361C68.7181 -0.411358 76.7593 6.77998 79.3701 14.3495C85.3854 31.7882 46.5507 74.3589 38.0221 74.3589C28.8495 74.3589 -5.38677 30.5163 0.725971 13.5726C4.34627 3.53837 13.1638 1.37956 13.7591 1.26269C28.564 -1.6283 39.2509 11.7128 39.9923 12.6685Z" fill="#E4E4E4"/>
</mask>
<g mask="url(#mask0_1029_4144)">
<path d="M37.4927 59.5476C7.24786 51.842 0.79478 59.2441 -3.47852 61.5125V97.363H73.0266C79.4453 97.363 84.6772 94.4159 84.6772 90.7964V63.5537C81.8698 64.7763 76.0995 65.2535 66.6064 65.3464C66.3565 65.3489 66.1041 65.3501 65.849 65.3501C65.597 65.3501 61.3521 65.3489 61.095 65.3464C57.5888 65.3127 57.6002 65.0451 53.1143 64.4391C48.4644 63.811 43.2698 61.0192 37.4927 59.5476Z" fill="#FC2930"/>
</g>
<path fill-rule="evenodd" clip-rule="evenodd" d="M53.1041 64.2232C46.6773 70.7626 40.8794 75.1537 38.1717 75.1537C34.4192 75.1537 26.4232 67.6447 18.7671 57.6409C23.8748 58.1429 30.0535 59.2054 37.4927 61.1131C43.2656 62.5932 48.4568 63.5909 53.1041 64.2232Z" fill="#FF6166"/>
<path fill-rule="evenodd" clip-rule="evenodd" d="M51.0025 66.307C45.4352 71.6784 40.5806 75.1537 38.1718 75.1537C34.8171 75.1537 28.0709 69.1524 21.208 60.7323C25.8107 61.2677 31.2001 62.2044 37.4909 63.7024C42.4092 64.8733 46.9052 65.7191 51.0025 66.307Z" fill="#FF6166"/>
<path d="M69.0797 23.7744L55.6055 16.8389C54.4127 16.2248 53.9457 14.7592 54.5675 13.5813C55.1894 12.4034 56.6736 11.9422 57.8664 12.5563L71.3406 19.4917C72.5334 20.1058 73.0005 21.5715 72.3786 22.7494C71.757 23.9267 70.2729 24.3879 69.0797 23.7744Z" fill="#E8C49F"/>
<path d="M63.9853 20.2595L61.0492 18.7482C60.6442 18.5398 60.4857 18.0425 60.6967 17.6426L61.4484 16.2179C61.6594 15.8179 62.163 15.6615 62.5681 15.8698L65.5042 17.3811C65.9092 17.5895 66.0676 18.0868 65.8566 18.4868L65.1049 19.9115C64.8939 20.3114 64.3903 20.4679 63.9853 20.2595Z" fill="#E7E8ED"/>
<path d="M58.0997 13.8471C58.0954 13.8373 58.092 13.8272 58.0862 13.8174C58.0283 13.7167 57.8939 13.6491 57.7781 13.6848C57.7586 13.6912 57.7397 13.7009 57.7223 13.7121C57.651 13.7409 57.5924 13.8043 57.5674 13.8745C57.5455 13.9371 57.5512 14.0019 57.5764 14.0588C57.6046 14.1616 57.6934 14.244 57.7998 14.2663C57.9241 14.293 58.0493 14.2298 58.1072 14.1194C58.1533 14.0306 58.1474 13.9282 58.0997 13.8471Z" fill="#D19D74"/>
<path d="M57.1153 15.7192C57.111 15.7094 57.1076 15.6993 57.1018 15.6895C57.0439 15.5888 56.9095 15.5212 56.7937 15.5569C56.7742 15.5632 56.7553 15.573 56.7379 15.5842C56.6667 15.613 56.608 15.6764 56.583 15.7466C56.5612 15.8092 56.5668 15.874 56.592 15.9309C56.6202 16.0336 56.709 16.1161 56.8154 16.1384C56.9397 16.1651 57.0649 16.1019 57.1228 15.9914C57.1689 15.9027 57.1636 15.8006 57.1153 15.7192Z" fill="#D19D74"/>
<path d="M57.6075 14.7834C57.6032 14.7736 57.5998 14.7635 57.594 14.7537C57.5361 14.653 57.4017 14.5854 57.2859 14.6211C57.2664 14.6274 57.2475 14.6371 57.2301 14.6484C57.1588 14.6772 57.1002 14.7406 57.0752 14.8108C57.0533 14.8734 57.059 14.9382 57.0842 14.9951C57.1124 15.0978 57.2012 15.1803 57.3076 15.2026C57.4319 15.2293 57.5571 15.1661 57.615 15.0557C57.6605 14.9666 57.6552 14.8645 57.6075 14.7834Z" fill="#D19D74"/>
<path d="M59.3128 14.469C59.3085 14.4593 59.3051 14.4492 59.2993 14.4394C59.2414 14.3387 59.107 14.271 58.9912 14.3067C58.9717 14.3131 58.9528 14.3228 58.9354 14.3341C58.8642 14.3629 58.8055 14.4263 58.7805 14.4965C58.7587 14.5591 58.7644 14.6238 58.7895 14.6807C58.8177 14.7835 58.9066 14.866 59.0129 14.8883C59.1372 14.9149 59.2624 14.8518 59.3203 14.7413C59.3664 14.6525 59.3605 14.5502 59.3128 14.469Z" fill="#D19D74"/>
<path d="M58.8162 15.4053C58.8119 15.3955 58.8086 15.3854 58.8027 15.3756C58.7449 15.2749 58.6105 15.2073 58.4946 15.243C58.4751 15.2494 58.4562 15.2591 58.4388 15.2704C58.3676 15.2992 58.3089 15.3626 58.2839 15.4328C58.2621 15.4953 58.2678 15.5601 58.293 15.617C58.3211 15.7198 58.41 15.8022 58.5164 15.8246C58.6407 15.8512 58.7659 15.788 58.8238 15.6776C58.8692 15.5885 58.8639 15.4864 58.8162 15.4053Z" fill="#D19D74"/>
<path d="M58.3223 16.342C58.318 16.3322 58.3147 16.3221 58.3088 16.3123C58.251 16.2116 58.1166 16.144 58.0007 16.1797C57.9812 16.186 57.9623 16.1957 57.945 16.207C57.8737 16.2358 57.815 16.2992 57.79 16.3694C57.7682 16.432 57.7739 16.4968 57.7991 16.5537C57.8272 16.6564 57.9161 16.7389 58.0225 16.7612C58.1468 16.7879 58.272 16.7247 58.3299 16.6142C58.3762 16.5249 58.371 16.4228 58.3223 16.342Z" fill="#D19D74"/>
<path d="M56.543 14.2566C56.5387 14.2469 56.5354 14.2368 56.5295 14.227C56.4717 14.1263 56.3373 14.0586 56.2214 14.0943C56.2019 14.1007 56.183 14.1104 56.1657 14.1217C56.0944 14.1505 56.0357 14.2139 56.0107 14.2841C55.9889 14.3466 55.9946 14.4114 56.0198 14.4683C56.0479 14.5711 56.1368 14.6536 56.2432 14.6759C56.3675 14.7025 56.4927 14.6394 56.5506 14.5289C56.5966 14.4401 56.5908 14.3378 56.543 14.2566Z" fill="#D19D74"/>
<path d="M60.4124 15.0366C60.4081 15.0268 60.4048 15.0167 60.3989 15.0069C60.341 14.9062 60.2067 14.8385 60.0908 14.8742C60.0713 14.8806 60.0524 14.8903 60.035 14.9016C59.9638 14.9304 59.9051 14.9938 59.8801 15.064C59.8583 15.1266 59.864 15.1913 59.8892 15.2483C59.9173 15.351 60.0062 15.4335 60.1125 15.4558C60.2369 15.4824 60.3621 15.4193 60.4199 15.3088C60.466 15.22 60.4601 15.1177 60.4124 15.0366Z" fill="#D19D74"/>
<path d="M59.92 15.9728C59.9157 15.963 59.9123 15.9529 59.9065 15.9431C59.8486 15.8424 59.7142 15.7748 59.5984 15.8105C59.5789 15.8169 59.56 15.8266 59.5426 15.8379C59.4714 15.8667 59.4127 15.9301 59.3877 16.0003C59.3658 16.0628 59.3715 16.1276 59.3967 16.1845C59.4249 16.2873 59.5137 16.3697 59.6201 16.3921C59.7444 16.4187 59.8696 16.3555 59.9275 16.2451C59.973 16.156 59.9677 16.0539 59.92 15.9728Z" fill="#D19D74"/>
<path d="M59.4239 16.9087C59.4196 16.899 59.4162 16.8889 59.4104 16.8791C59.3525 16.7784 59.2181 16.7107 59.1023 16.7464C59.0828 16.7528 59.0639 16.7625 59.0465 16.7738C58.9753 16.8026 58.9166 16.866 58.8916 16.9362C58.8698 16.9987 58.8754 17.0636 58.9006 17.1205C58.9288 17.2232 59.0176 17.3057 59.124 17.328C59.2483 17.3546 59.3735 17.2915 59.4314 17.181C59.4775 17.0922 59.4722 16.9902 59.4239 16.9087Z" fill="#D19D74"/>
<path d="M68.6251 22.1538C68.6294 22.1636 68.6334 22.174 68.6386 22.1835C68.6968 22.2836 68.8321 22.3509 68.9476 22.3143C68.9671 22.3079 68.9854 22.2979 69.0037 22.2863C69.0743 22.2572 69.133 22.1938 69.1574 22.1233C69.1792 22.0607 69.1729 21.9956 69.1477 21.9387C69.1196 21.836 69.0295 21.7544 68.9231 21.7321C68.7985 21.7061 68.6736 21.7702 68.6169 21.8812C68.5702 21.9712 68.577 22.0733 68.6251 22.1538Z" fill="#D19D74"/>
<path d="M69.6 20.2751C69.6043 20.2849 69.6083 20.2953 69.6136 20.3048C69.6717 20.4049 69.8071 20.4722 69.9226 20.4356C69.9421 20.4292 69.9604 20.4192 69.9787 20.4076C70.0493 20.3785 70.108 20.3151 70.1324 20.2446C70.1542 20.182 70.1479 20.1169 70.1227 20.06C70.0946 19.9573 70.0045 19.8757 69.8978 19.854C69.7732 19.828 69.6483 19.8921 69.5916 20.0031C69.5452 20.0925 69.5514 20.1943 69.6 20.2751Z" fill="#D19D74"/>
<path d="M69.1116 21.2145C69.1159 21.2242 69.1199 21.2347 69.1252 21.2441C69.1833 21.3442 69.3187 21.4116 69.4342 21.3749C69.4537 21.3686 69.472 21.3585 69.4903 21.347C69.5609 21.3179 69.6196 21.2545 69.6439 21.184C69.6658 21.1214 69.6595 21.0563 69.6343 20.9994C69.6062 20.8966 69.5161 20.8151 69.4097 20.7928C69.2851 20.7667 69.1602 20.8308 69.1035 20.9419C69.0568 21.0319 69.063 21.1336 69.1116 21.2145Z" fill="#D19D74"/>
<path d="M67.4107 21.5403C67.415 21.5501 67.419 21.5605 67.4242 21.5699C67.4824 21.67 67.6177 21.7374 67.7332 21.7007C67.7528 21.6944 67.7711 21.6844 67.7893 21.6728C67.86 21.6437 67.9187 21.5803 67.943 21.5098C67.9649 21.4472 67.9586 21.3821 67.9334 21.3252C67.9052 21.2224 67.8151 21.1409 67.7087 21.1186C67.5841 21.0925 67.4592 21.1566 67.4026 21.2677C67.3562 21.3571 67.3624 21.4588 67.4107 21.5403Z" fill="#D19D74"/>
<path d="M67.8987 20.6003C67.903 20.6101 67.907 20.6205 67.9123 20.63C67.9704 20.7301 68.1058 20.7974 68.2213 20.7608C68.2408 20.7545 68.2591 20.7444 68.2774 20.7329C68.348 20.7037 68.4067 20.6404 68.431 20.5699C68.4529 20.5073 68.4466 20.4422 68.4214 20.3853C68.3933 20.2825 68.3032 20.201 68.1968 20.1786C68.0722 20.1526 67.9473 20.2167 67.8906 20.3278C67.8439 20.4178 67.8501 20.5195 67.8987 20.6003Z" fill="#D19D74"/>
<path d="M68.387 19.661C68.3913 19.6708 68.3953 19.6812 68.4005 19.6907C68.4587 19.7908 68.594 19.8581 68.7096 19.8215C68.7291 19.8151 68.7474 19.8051 68.7657 19.7935C68.8363 19.7644 68.895 19.701 68.9193 19.6305C68.9412 19.5679 68.9349 19.5028 68.9097 19.4459C68.8815 19.3432 68.7914 19.2616 68.6851 19.2393C68.5604 19.2133 68.4355 19.2774 68.3789 19.3884C68.3322 19.4784 68.3384 19.5802 68.387 19.661Z" fill="#D19D74"/>
<path d="M70.18 21.7342C70.1843 21.744 70.1883 21.7544 70.1935 21.7639C70.2517 21.864 70.387 21.9313 70.5025 21.8947C70.522 21.8884 70.5403 21.8783 70.5586 21.8668C70.6293 21.8377 70.6879 21.7743 70.7123 21.7038C70.7341 21.6412 70.7279 21.5761 70.7027 21.5192C70.6745 21.4164 70.5844 21.3349 70.478 21.3125C70.3534 21.2865 70.2285 21.3506 70.1719 21.4617C70.1252 21.5517 70.1313 21.6534 70.18 21.7342Z" fill="#D19D74"/>
<path d="M66.3051 20.9802C66.3094 20.99 66.3134 21.0004 66.3186 21.0099C66.3768 21.1099 66.5121 21.1773 66.6277 21.1406C66.6472 21.1343 66.6655 21.1243 66.6838 21.1127C66.7544 21.0836 66.8131 21.0202 66.8374 20.9497C66.8593 20.8871 66.853 20.822 66.8278 20.7651C66.7996 20.6624 66.7095 20.5808 66.6029 20.5591C66.4782 20.5331 66.3533 20.5971 66.2967 20.7082C66.2506 20.797 66.2565 20.8994 66.3051 20.9802Z" fill="#D19D74"/>
<path d="M66.7933 20.041C66.7976 20.0508 66.8016 20.0612 66.8068 20.0707C66.865 20.1708 67.0003 20.2381 67.1158 20.2015C67.1353 20.1951 67.1536 20.1851 67.1719 20.1735C67.2425 20.1444 67.3012 20.081 67.3256 20.0105C67.3474 19.9479 67.3411 19.8828 67.3159 19.8259C67.2878 19.7232 67.1977 19.6416 67.0913 19.6193C66.9667 19.5933 66.8418 19.6574 66.7851 19.7684C66.7388 19.8578 66.7446 19.9602 66.7933 20.041Z" fill="#D19D74"/>
<path d="M67.2817 19.1016C67.286 19.1114 67.29 19.1218 67.2952 19.1313C67.3534 19.2314 67.4887 19.2987 67.6042 19.2621C67.6238 19.2557 67.642 19.2457 67.6603 19.2342C67.731 19.205 67.7896 19.1417 67.814 19.0711C67.8359 19.0086 67.8296 18.9435 67.8044 18.8866C67.7762 18.7838 67.6861 18.7023 67.5794 18.6806C67.4548 18.6545 67.3299 18.7186 67.2732 18.8297C67.2272 18.9184 67.2331 19.0208 67.2817 19.1016Z" fill="#D19D74"/>
</svg>
