<svg width="38" height="33" viewBox="0 0 38 33" fill="none" xmlns="http://www.w3.org/2000/svg">
<path d="M18.8732 5.82741L15.792 2.46704C12.0737 -0.946605 6.36169 -0.830612 2.82097 2.89579C-0.875218 6.78544 -0.875218 13.0929 2.82097 16.9834C2.82097 16.9834 4.36367 18.7302 6.28524 20.8799L6.68281 21.3336C6.68281 21.3336 8.04456 22.8716 9.70874 24.7524C11.3729 26.6324 14.0964 29.7101 15.7606 31.59C16.5931 32.53 17.6898 33 18.7874 33H18.959C20.0565 33 21.1532 32.53 21.9849 31.59C23.6491 29.7101 26.3726 26.6324 28.0376 24.7524C29.7018 22.8724 31.0635 21.3336 31.0635 21.3336L31.4611 20.8799C33.3827 18.7293 34.9245 16.9834 34.9245 16.9834C38.6207 13.0938 38.6207 6.7863 34.9245 2.89579C31.3838 -0.830612 25.6717 -0.946605 21.9535 2.46704L18.8732 5.82741Z" fill="#FFCEA0"/>
<path fill-rule="evenodd" clip-rule="evenodd" d="M18.9772 20.1072C17.0373 20.1072 15.3294 21.1155 14.3404 22.6456C14.1479 22.9435 13.753 23.0271 13.4585 22.8324C13.164 22.6377 13.0813 22.2383 13.2738 21.9404C14.4885 20.0612 16.5897 18.8184 18.9772 18.8184C21.3079 18.8184 23.3354 20.1335 24.5514 21.9288C24.7503 22.2224 24.6762 22.6235 24.3859 22.8247C24.0956 23.0258 23.699 22.9508 23.5002 22.6572C22.4803 21.1515 20.8192 20.1072 18.9772 20.1072Z" fill="#221F1F"/>
<path fill-rule="evenodd" clip-rule="evenodd" d="M13.5964 11.7344C14.3794 11.7344 15.0141 12.3763 15.0141 13.1683V13.8926C15.0141 14.6845 14.3794 15.3265 13.5964 15.3265C12.8134 15.3265 12.1787 14.6845 12.1787 13.8926V13.1683C12.1787 12.3763 12.8134 11.7344 13.5964 11.7344Z" fill="#221F1F"/>
<path fill-rule="evenodd" clip-rule="evenodd" d="M24.1921 11.7344C24.9751 11.7344 25.6098 12.3763 25.6098 13.1683V13.8926C25.6098 14.6845 24.9751 15.3265 24.1921 15.3265C23.4091 15.3265 22.7744 14.6845 22.7744 13.8926V13.1683C22.7744 12.3763 23.4091 11.7344 24.1921 11.7344Z" fill="#221F1F"/>
<path fill-rule="evenodd" clip-rule="evenodd" d="M11.2719 10.5144C11.4708 10.2209 11.8674 10.1461 12.1576 10.3474L14.6059 12.0452C14.8961 12.2464 14.9701 12.6475 14.7711 12.941C14.5721 13.2346 14.1755 13.3094 13.8853 13.1081L11.4371 11.4103C11.1468 11.2091 11.0729 10.808 11.2719 10.5144Z" fill="#221F1F"/>
<path fill-rule="evenodd" clip-rule="evenodd" d="M26.5173 10.5144C26.7163 10.8079 26.6424 11.209 26.3522 11.4103L23.9048 13.1081C23.6146 13.3094 23.218 13.2346 23.019 12.9411C22.82 12.6476 22.8939 12.2465 23.184 12.0452L25.6315 10.3474C25.9216 10.1461 26.3182 10.2209 26.5173 10.5144Z" fill="#221F1F"/>
</svg>
